<svg viewBox="0 0 1900 1320" xmlns="http://www.w3.org/2000/svg" font-family="'Comic Sans MS','Chalkboard SE','Segoe Print',cursive">
  <defs>
    <marker id="ah" viewBox="0 0 12 10" markerWidth="13" markerHeight="11" refX="10" refY="5" orient="auto-start-reverse" markerUnits="userSpaceOnUse">
      <path d="M1,1 L11,5 L1,9" fill="none" stroke="#111" stroke-width="2.2" stroke-linecap="round" stroke-linejoin="round"/>
    </marker>
  </defs>
  <rect x="0" y="0" width="1900" height="1320" fill="#ffffff"/>

  <text x="950" y="88" text-anchor="middle" font-family="'Arial Black',Arial,sans-serif" font-weight="900" font-size="64" fill="#000">VOW — ARCHITECTURE FLOWCHART</text>
  <text x="950" y="142" text-anchor="middle" font-size="30" fill="#222">WeddingOS — AI wedding-planning agent</text>

  <!-- Users group -->
  <rect x="70" y="470" width="330" height="430" rx="26" fill="#fff" stroke="#111" stroke-width="2.5"/>
  <text x="235" y="522" text-anchor="middle" font-size="30" fill="#111">Users</text>
  <rect x="110" y="560" width="250" height="70" rx="14" fill="#ffec99" stroke="#111" stroke-width="2.5" transform="rotate(-0.5 235 595)"/>
  <text x="235" y="604" text-anchor="middle" font-size="22" fill="#111">couple (browser)</text>
  <rect x="110" y="670" width="250" height="70" rx="12" fill="#ffec99" stroke="#111" stroke-width="2.5" transform="rotate(0.5 235 705)"/>
  <text x="235" y="714" text-anchor="middle" font-size="22" fill="#111">guests — magic link</text>
  <rect x="110" y="780" width="250" height="70" rx="16" fill="#ffec99" stroke="#111" stroke-width="2.5" transform="rotate(-0.4 235 815)"/>
  <text x="235" y="824" text-anchor="middle" font-size="22" fill="#111">WhatsApp invites</text>

  <!-- Flask group -->
  <rect x="520" y="380" width="400" height="620" rx="26" fill="#fff" stroke="#111" stroke-width="2.5"/>
  <text x="720" y="432" text-anchor="middle" font-size="30" fill="#111">Flask app — Render</text>
  <rect x="560" y="480" width="320" height="70" rx="14" fill="#99e9f2" stroke="#111" stroke-width="2.5" transform="rotate(0.4 720 515)"/>
  <text x="720" y="524" text-anchor="middle" font-size="22" fill="#111">pages &amp; dashboards</text>
  <rect x="560" y="610" width="320" height="70" rx="12" fill="#99e9f2" stroke="#111" stroke-width="2.5" transform="rotate(-0.5 720 645)"/>
  <text x="720" y="654" text-anchor="middle" font-size="21" fill="#111">RSVP API — scoped writes</text>
  <rect x="560" y="740" width="320" height="70" rx="16" fill="#99e9f2" stroke="#111" stroke-width="2.5" transform="rotate(0.5 720 775)"/>
  <text x="720" y="784" text-anchor="middle" font-size="21" fill="#111">seating conflict engine</text>

  <!-- Agent group -->
  <rect x="1040" y="150" width="420" height="560" rx="26" fill="#fff" stroke="#111" stroke-width="2.5"/>
  <text x="1250" y="202" text-anchor="middle" font-size="30" fill="#111">Agent — GPT-4o</text>
  <rect x="1080" y="240" width="340" height="70" rx="14" fill="#b2f2bb" stroke="#111" stroke-width="2.5" transform="rotate(-0.4 1250 275)"/>
  <text x="1250" y="284" text-anchor="middle" font-size="22" fill="#111">harness loop + tools</text>
  <rect x="1080" y="350" width="340" height="70" rx="12" fill="#b2f2bb" stroke="#111" stroke-width="2.5" transform="rotate(0.5 1250 385)"/>
  <text x="1250" y="394" text-anchor="middle" font-size="21" fill="#111">orchestrator — 3 specialists</text>
  <rect x="1080" y="460" width="340" height="70" rx="16" fill="#b2f2bb" stroke="#111" stroke-width="2.5" transform="rotate(-0.5 1250 495)"/>
  <text x="1250" y="504" text-anchor="middle" font-size="22" fill="#111">verifier</text>
  <rect x="1080" y="570" width="340" height="70" rx="14" fill="#b2f2bb" stroke="#111" stroke-width="2.5" transform="rotate(0.4 1250 605)"/>
  <text x="1250" y="614" text-anchor="middle" font-size="21" fill="#111">guards + cost caps</text>

  <!-- Skills group -->
  <rect x="1580" y="150" width="290" height="620" rx="26" fill="#fff" stroke="#111" stroke-width="2.5"/>
  <text x="1725" y="202" text-anchor="middle" font-size="30" fill="#111">Skills</text>
  <rect x="1610" y="230" width="230" height="60" rx="12" fill="#e9e5df" stroke="#111" stroke-width="2.5" transform="rotate(0.5 1725 260)"/>
  <text x="1725" y="268" text-anchor="middle" font-size="20" fill="#111">contract-analyzer</text>
  <rect x="1610" y="320" width="230" height="60" rx="14" fill="#e9e5df" stroke="#111" stroke-width="2.5" transform="rotate(-0.5 1725 350)"/>
  <text x="1725" y="358" text-anchor="middle" font-size="20" fill="#111">budget-forecaster</text>
  <rect x="1610" y="410" width="230" height="60" rx="12" fill="#e9e5df" stroke="#111" stroke-width="2.5" transform="rotate(0.4 1725 440)"/>
  <text x="1725" y="448" text-anchor="middle" font-size="20" fill="#111">guest-list-manager</text>
  <rect x="1610" y="500" width="230" height="60" rx="16" fill="#e9e5df" stroke="#111" stroke-width="2.5" transform="rotate(-0.4 1725 530)"/>
  <text x="1725" y="538" text-anchor="middle" font-size="20" fill="#111">weekly-brief</text>
  <rect x="1610" y="590" width="230" height="60" rx="12" fill="#e9e5df" stroke="#111" stroke-width="2.5" transform="rotate(0.5 1725 620)"/>
  <text x="1725" y="628" text-anchor="middle" font-size="20" fill="#111">seating-planner</text>
  <rect x="1610" y="680" width="230" height="60" rx="14" fill="#e9e5df" stroke="#111" stroke-width="2.5" transform="rotate(-0.5 1725 710)"/>
  <text x="1725" y="718" text-anchor="middle" font-size="20" fill="#111">LESSONS.md</text>

  <!-- Data group -->
  <rect x="1040" y="820" width="420" height="350" rx="26" fill="#fff" stroke="#111" stroke-width="2.5"/>
  <text x="1250" y="872" text-anchor="middle" font-size="30" fill="#111">Data — JSON files</text>
  <rect x="1080" y="900" width="340" height="70" rx="14" fill="#ffc9c9" stroke="#111" stroke-width="2.5" transform="rotate(0.4 1250 935)"/>
  <text x="1250" y="944" text-anchor="middle" font-size="21" fill="#111">wedding data — 5 files</text>
  <rect x="1080" y="995" width="340" height="70" rx="12" fill="#ffc9c9" stroke="#111" stroke-width="2.5" transform="rotate(-0.5 1250 1030)"/>
  <text x="1250" y="1039" text-anchor="middle" font-size="21" fill="#111">brief.json cache</text>
  <rect x="1080" y="1090" width="340" height="70" rx="16" fill="#ffc9c9" stroke="#111" stroke-width="2.5" transform="rotate(0.5 1250 1125)"/>
  <text x="1250" y="1134" text-anchor="middle" font-size="21" fill="#111">backups on write</text>

  <!-- Logs group -->
  <rect x="520" y="1080" width="400" height="190" rx="26" fill="#fff" stroke="#111" stroke-width="2.5"/>
  <text x="720" y="1130" text-anchor="middle" font-size="30" fill="#111">Logs</text>
  <rect x="560" y="1160" width="320" height="70" rx="14" fill="#e9e5df" stroke="#111" stroke-width="2.5" transform="rotate(-0.4 720 1195)"/>
  <text x="720" y="1204" text-anchor="middle" font-size="21" fill="#111">cost &amp; tokens per call</text>

  <!-- Arrows -->
  <g stroke="#111" stroke-width="2.5" fill="none" stroke-linecap="round">
    <path d="M368,592 Q460,555 548,528" marker-end="url(#ah)"/>
    <path d="M368,702 Q460,675 548,650" marker-end="url(#ah)"/>
    <path d="M556,672 Q460,735 372,798" marker-end="url(#ah)"/>
    <path d="M888,508 Q980,395 1068,288" marker-end="url(#ah)"/>
    <path d="M888,662 Q980,795 1068,925" marker-end="url(#ah)"/>
    <path d="M1468,300 L1572,300" marker-end="url(#ah)" marker-start="url(#ah)"/>
    <path d="M1468,622 Q1530,665 1600,700" marker-end="url(#ah)"/>
    <path d="M1250,718 L1250,812" marker-end="url(#ah)" marker-start="url(#ah)"/>
    <path d="M1070,665 Q970,900 892,1150" marker-end="url(#ah)"/>
  </g>
</svg>
